<svg width="32" height="32" viewBox="0 0 32 32" fill="none" xmlns="http://www.w3.org/2000/svg">
<path d="M30.9119 21.226L26.6652 7.07022C26.5801 6.78488 26.4323 6.5222 26.2325 6.30146C26.0327 6.08072 25.786 5.90753 25.5105 5.79459L25.4433 5.81497L25.512 5.79099C24.1181 5.22268 22.6724 4.79119 21.1951 4.5026C21.0663 4.47699 20.9337 4.477 20.8049 4.50263C20.6761 4.52826 20.5536 4.57901 20.4444 4.65198C20.3352 4.72496 20.2415 4.81872 20.1685 4.92792C20.0956 5.03712 20.0448 5.15962 20.0192 5.28842C19.9936 5.41723 19.9936 5.54982 20.0193 5.67862C20.0449 5.80742 20.0956 5.92991 20.1686 6.0391C20.2416 6.14828 20.3354 6.24203 20.4446 6.31498C20.5538 6.38793 20.6763 6.43866 20.8051 6.46427C21.3656 6.57572 21.915 6.70686 22.4531 6.8577C22.6639 6.96177 22.8311 7.13694 22.9253 7.3523C23.0195 7.56767 23.0346 7.80938 22.9679 8.03478C22.9012 8.26018 22.757 8.45478 22.5608 8.58424C22.3647 8.7137 22.129 8.76969 21.8956 8.74234C18.0727 7.76025 14.0647 7.75236 10.238 8.71939C10.0002 8.77786 9.74926 8.747 9.53274 8.63268C9.31622 8.51836 9.1492 8.32853 9.06339 8.09921C8.97757 7.86989 8.97893 7.61705 9.06719 7.38867C9.15547 7.16029 9.32451 6.97226 9.54224 6.86026L9.54651 6.86173C10.0844 6.71109 10.6344 6.57976 11.1966 6.46774C11.4567 6.41599 11.6856 6.26304 11.8329 6.04254C11.9803 5.82204 12.034 5.55204 11.9823 5.29193C11.9306 5.03182 11.7776 4.80291 11.5572 4.65553C11.3367 4.50816 11.0667 4.4544 10.8066 4.50607C9.32926 4.79469 7.88348 5.22619 6.48962 5.79447C6.21414 5.90743 5.96743 6.08063 5.76761 6.30136C5.56779 6.5221 5.41991 6.78477 5.33484 7.0701L1.08813 21.226C0.978428 21.5963 0.977692 21.9905 1.08601 22.3612C1.19434 22.732 1.40713 23.0638 1.69897 23.3168C1.8183 23.4206 1.94061 23.5224 2.06464 23.6233C2.06757 23.6256 2.07007 23.6284 2.073 23.6308C4.10181 25.2765 6.76092 26.5338 9.76282 27.2666C10.0205 27.3295 10.2925 27.2875 10.5192 27.1498C10.7459 27.0121 10.9085 26.79 10.9714 26.5324C11.0343 26.2747 10.9923 26.0027 10.8546 25.776C10.7169 25.5493 10.4948 25.3867 10.2372 25.3238C8.88715 24.9993 7.57438 24.5357 6.31995 23.9405L6.32819 23.9411C6.15228 23.7816 6.03889 23.5647 6.0083 23.3293C5.97771 23.0938 6.03192 22.8551 6.16123 22.656C6.29054 22.4569 6.48651 22.3103 6.71405 22.2424C6.94158 22.1746 7.18583 22.19 7.40308 22.2858C9.77625 23.3429 12.7579 23.9999 16 23.9999C19.2421 23.9999 22.2258 23.3421 24.599 22.285C24.8163 22.1897 25.0603 22.1749 25.2876 22.243C25.5148 22.3112 25.7104 22.4579 25.8394 22.657C25.9683 22.8561 26.0223 23.0946 25.9916 23.3298C25.9609 23.5651 25.8476 23.7817 25.6718 23.9411L25.6801 23.9405C24.4256 24.5357 23.1129 24.9993 21.7628 25.3238C21.5052 25.3867 21.2831 25.5493 21.1454 25.776C21.0077 26.0027 20.9657 26.2747 21.0286 26.5324C21.0915 26.79 21.2541 27.0121 21.4808 27.1498C21.7075 27.2875 21.9795 27.3295 22.2372 27.2666C25.2391 26.5338 27.8982 25.2765 29.927 23.6308C29.9301 23.6283 29.9326 23.6255 29.9356 23.623H29.9357C30.0596 23.5223 30.1819 23.4204 30.3011 23.3167C30.5929 23.0636 30.8057 22.7319 30.914 22.3612C31.0223 21.9904 31.0216 21.5963 30.9119 21.226ZM12 19.4999C11.7033 19.4999 11.4133 19.4119 11.1666 19.2471C10.92 19.0823 10.7277 18.848 10.6142 18.5739C10.5006 18.2998 10.4709 17.9982 10.5288 17.7073C10.5867 17.4163 10.7296 17.149 10.9393 16.9392C11.1491 16.7295 11.4164 16.5866 11.7074 16.5287C11.9983 16.4709 12.2999 16.5006 12.574 16.6141C12.8481 16.7276 13.0824 16.9199 13.2472 17.1666C13.412 17.4132 13.5 17.7032 13.5 17.9999C13.5 18.3977 13.342 18.7793 13.0607 19.0606C12.7794 19.3419 12.3978 19.4999 12 19.4999ZM20 19.4999C19.7033 19.4999 19.4133 19.4119 19.1666 19.2471C18.92 19.0823 18.7277 18.848 18.6142 18.5739C18.5007 18.2998 18.4709 17.9982 18.5288 17.7073C18.5867 17.4163 18.7296 17.149 18.9393 16.9392C19.1491 16.7295 19.4164 16.5866 19.7074 16.5287C19.9983 16.4709 20.2999 16.5006 20.574 16.6141C20.8481 16.7276 21.0824 16.9199 21.2472 17.1666C21.412 17.4132 21.5 17.7032 21.5 17.9999C21.5 18.3977 21.342 18.7793 21.0607 19.0606C20.7794 19.3419 20.3978 19.4999 20 19.4999Z" fill="white"/>
</svg>
