<svg width="32" height="32" viewBox="0 0 32 32" fill="none" xmlns="http://www.w3.org/2000/svg">
<path d="M30.7072 9.70726L26.9943 13.4201C26.8945 17.0896 25.4939 20.6685 23.1166 23.2961C20.3322 26.3735 16.4882 28.0002 12 28.0002C7.636 28.0002 5.38649 25.8009 5.29286 25.7073C5.16495 25.5793 5.07414 25.4191 5.0301 25.2437C4.98605 25.0682 4.99043 24.8841 5.04275 24.7109C5.09507 24.5378 5.19339 24.382 5.32723 24.2603C5.46106 24.1386 5.6254 24.0555 5.80275 24.0198C6.87001 23.8036 9.51918 22.9617 10.6465 21.4441C9.43782 20.7472 8.36454 19.8382 7.47804 18.7609C4.34156 14.9522 4.40803 10.1659 5.01613 6.82128C5.05046 6.63248 5.13838 6.45755 5.26941 6.31735C5.40044 6.17716 5.56904 6.07762 5.75509 6.03062C5.94114 5.98363 6.13678 5.99115 6.31867 6.0523C6.50056 6.11344 6.66102 6.22563 6.7809 6.37548C6.81526 6.4182 10.1019 10.4448 15 11.7603V11.0005C15.0106 9.3993 15.6565 7.86779 16.7959 6.74268C17.9353 5.61757 19.4748 4.99096 21.0761 5.0006C22.1162 5.015 23.1348 5.29894 24.0324 5.82467C24.93 6.3504 25.6758 7.09995 26.1972 8.00011L30 8.00017C30.1978 8.00017 30.3911 8.05882 30.5556 8.16869C30.72 8.27857 30.8482 8.43475 30.9239 8.61747C30.9996 8.80019 31.0194 9.00126 30.9808 9.19524C30.9422 9.38922 30.847 9.5674 30.7072 9.70726Z" fill="white"/>
</svg>
